<?xml version="1.0" encoding="UTF-8"?>
<svg version="1.1" xmlns="http://www.w3.org/2000/svg" width="512" height="512">
<path d="M0 0 C5.608542 3.70524796 9.95388023 4.65700014 16.61889648 3.65869141 C20.5951932 2.73217899 24.43735005 1.51934159 28.30639648 0.22119141 C39.48375466 -3.44173259 39.48375466 -3.44173259 43.61108398 -3.88427734 C46.84095132 -4.37504939 47.84614739 -4.90846408 50.05639648 -7.21630859 C55.949037 -12.65164885 62.00483018 -13.94857013 69.94311523 -13.68505859 C76.95390222 -12.78440275 81.20482431 -9.26589651 85.58764648 -3.92724609 C86.61889648 -2.34130859 86.61889648 -2.34130859 86.61889648 -0.34130859 C87.4709668 -0.07576172 88.32303711 0.18978516 89.20092773 0.46337891 C99.74093351 4.1493695 108.87675071 9.79405345 117.61889648 16.65869141 C118.20155273 17.07634766 118.78420898 17.49400391 119.38452148 17.92431641 C128.91745634 25.04893088 133.96699537 36.41066229 135.80639648 47.78369141 C136.79476423 52.70438856 137.6336649 55.46038752 141.61889648 58.59619141 C143.25863838 59.659735 144.92803864 60.67844744 146.61889648 61.65869141 C148.60085046 62.90426723 150.58001179 64.15429744 152.55639648 65.40869141 C153.47291992 65.96041016 154.38944336 66.51212891 155.33374023 67.08056641 C157.61889648 68.65869141 157.61889648 68.65869141 159.61889648 71.65869141 C160.3262311 79.34049745 158.42513873 85.36081421 155.80639648 92.53369141 C155.4499707 93.56494141 155.09354492 94.59619141 154.72631836 95.65869141 C151.70983166 104.1380632 151.70983166 104.1380632 148.61889648 106.65869141 C146.16577148 107.57275391 146.16577148 107.57275391 143.36889648 108.28369141 C142.45624023 108.52345703 141.54358398 108.76322266 140.60327148 109.01025391 C132.93525391 110.67634149 125.34497782 110.94551105 117.53295898 111.17626953 C106.44565046 111.39292251 106.44565046 111.39292251 97.24389648 116.76025391 C90.82949285 121.9942291 81.41376717 120.26749341 73.61889648 120.03369141 C71.87284863 120.0035592 70.12675079 119.97618913 68.38061523 119.95166016 C64.12546472 119.8859083 59.87273539 119.78257112 55.61889648 119.65869141 C55.88806885 120.45138428 56.15724121 121.24407715 56.43457031 122.06079102 C58.95008703 129.78494722 60.49132716 137.15077019 61.30639648 145.22119141 C61.4346582 146.34380371 61.56291992 147.46641602 61.69506836 148.62304688 C62.26129 153.84132776 62.68900032 158.9741367 62.63842773 164.22509766 C62.53941894 176.65541578 65.46111429 183.05473211 73.14331055 192.72412109 C75.50442554 195.8196663 77.4768615 199.10872524 79.43139648 202.47119141 C79.8275415 203.14859375 80.22368652 203.82599609 80.63183594 204.52392578 C85.21457799 212.50139112 89.36053868 220.71494819 93.56933594 228.89331055 C101.61158463 247.68838547 101.61158463 247.68838547 115.61889648 260.65869141 C118.90864169 260.85170123 122.19641608 260.97581094 125.48999023 261.08447266 C129.18996507 261.76349425 130.36951248 262.69504803 132.61889648 265.65869141 C133.708326 269.65326628 134.04027296 271.73567627 132.30639648 275.53369141 C130.61889648 277.65869141 130.61889648 277.65869141 128.61889648 278.65869141 C121.010169 279.37678252 113.32121704 279.41727363 105.6824522 279.56981754 C102.16982559 279.6413308 98.66423222 279.74227307 95.15527344 279.9206543 C78.76885463 280.73248259 66.20138618 280.17532233 53.22514343 268.84022522 C51.72565069 267.45575762 50.23944508 266.05672492 48.76855469 264.64190674 C45.44130361 261.57227672 41.79057338 259.01788884 38.05639648 256.47119141 C37.03529282 255.77281662 37.03529282 255.77281662 35.99356079 255.06033325 C31.37790197 251.94096676 26.63755085 249.84932273 21.42358398 247.88525391 C16.25117946 245.62322741 11.99278213 242.17897456 7.61889648 238.65869141 C6.85963867 238.07603516 6.10038086 237.49337891 5.31811523 236.89306641 C-6.65122771 227.11349669 -14.05995395 213.49085399 -20.38110352 199.65869141 C-20.83614258 198.66611328 -21.29118164 197.67353516 -21.76000977 196.65087891 C-22.65439625 194.66266087 -23.52231082 192.66254102 -24.38110352 190.65869141 C-28.21022253 192.16755283 -31.33578481 193.86713302 -34.38110352 196.65869141 C-36.1909497 201.15201387 -36.48770986 205.64437717 -36.85375977 210.44775391 C-36.98989062 211.79765317 -37.13021549 213.14713542 -37.27452087 214.4961853 C-37.6419252 218.03273419 -37.95423305 221.5720012 -38.25439453 225.11480713 C-38.56877478 228.71851751 -38.9322575 232.31721055 -39.29321289 235.91650391 C-39.92487138 242.24157636 -40.5112063 248.56956303 -41.06239319 254.9022522 C-41.33332732 257.24548809 -41.73745923 259.3944204 -42.38110352 261.65869141 C-41.56125977 261.61228516 -40.74141602 261.56587891 -39.89672852 261.51806641 C-38.81907227 261.48197266 -37.74141602 261.44587891 -36.63110352 261.40869141 C-35.56375977 261.36228516 -34.49641602 261.31587891 -33.39672852 261.26806641 C-30.38110352 261.65869141 -30.38110352 261.65869141 -28.04907227 263.49072266 C-25.88925489 266.29797943 -25.45321833 268.12506558 -25.38110352 271.65869141 C-26.75504082 274.53741718 -28.13099789 276.40858578 -30.38110352 278.65869141 C-32.71826172 278.93284607 -32.71826172 278.93284607 -35.68188477 278.96508789 C-36.79063965 278.98107529 -37.89939453 278.99706268 -39.04174805 279.01353455 C-40.24686035 279.01889725 -41.45197266 279.02425995 -42.69360352 279.02978516 C-43.93223145 279.03881363 -45.17085938 279.0478421 -46.44702148 279.05714417 C-49.07672624 279.07168268 -51.70599573 279.08133666 -54.33569336 279.08422852 C-57.01871552 279.08851902 -59.70076993 279.10923766 -62.38354492 279.14575195 C-66.25802722 279.19478695 -70.13134216 279.21003673 -74.00610352 279.21728516 C-75.19502197 279.23681747 -76.38394043 279.25634979 -77.60888672 279.276474 C-85.20144894 279.23578029 -91.0910261 278.09587527 -97.38110352 273.65869141 C-103.85217886 267.02061696 -105.53549528 260.30677656 -105.45556641 251.18310547 C-105.40235797 238.84309191 -108.46311963 229.91643688 -114.57080078 219.28076172 C-115.38110352 217.65869141 -115.38110352 217.65869141 -115.38110352 215.65869141 C-116.04110352 215.65869141 -116.70110352 215.65869141 -117.38110352 215.65869141 C-117.59379883 216.42439453 -117.80649414 217.19009766 -118.02563477 217.97900391 C-119.9076898 223.08821384 -122.49714163 227.74224264 -125.06860352 232.53369141 C-129.95233657 241.74458793 -134.40891128 251.02192927 -138.38110352 260.65869141 C-137.06754883 260.67287109 -135.75399414 260.68705078 -134.40063477 260.70166016 C-132.66492301 260.74857128 -130.929247 260.79681862 -129.19360352 260.84619141 C-127.89712891 260.85489258 -127.89712891 260.85489258 -126.57446289 260.86376953 C-122.09310704 261.01829904 -119.97241695 261.21013471 -116.30688477 263.99072266 C-114.38110352 266.65869141 -114.38110352 266.65869141 -113.75610352 270.15869141 C-114.5742155 274.7401185 -115.63658532 275.89383358 -119.38110352 278.65869141 C-123.10395847 279.45977202 -126.77801626 279.47844559 -130.57641602 279.49853516 C-131.67847382 279.51517715 -132.78053162 279.53181915 -133.91598511 279.54896545 C-136.25434982 279.57427332 -138.59289496 279.58600825 -140.93139648 279.58520508 C-144.44778291 279.59601217 -147.95597762 279.68639776 -151.47094727 279.78173828 C-167.05010496 279.97348558 -179.85254336 277.50093612 -192.06326294 267.24595642 C-194.39819746 264.43365883 -194.07265699 260.68093284 -194.31860352 257.15869141 C-195.94886994 239.5420289 -204.84811161 223.19168331 -217.38110352 210.65869141 C-218.14551758 211.33673828 -218.90993164 212.01478516 -219.69750977 212.71337891 C-240.7561629 231.12969153 -271.35406895 251.65869141 -300.38110352 251.65869141 C-300.38110352 254.95869141 -300.38110352 258.25869141 -300.38110352 261.65869141 C-299.45297852 261.74119141 -298.52485352 261.82369141 -297.56860352 261.90869141 C-294.38110352 262.65869141 -294.38110352 262.65869141 -292.50610352 264.28369141 C-290.89696462 267.68076241 -290.85960977 269.94304847 -291.38110352 273.65869141 C-294.08497852 277.20714396 -295.5633577 278.51633347 -300.00634766 279.28979492 C-301.3927408 279.31582934 -302.77986709 279.31365704 -304.16625977 279.28759766 C-304.90436386 279.29000961 -305.64246796 279.29242157 -306.40293884 279.29490662 C-307.95699458 279.29393066 -309.51108617 279.28059683 -311.06494141 279.25561523 C-313.44041096 279.22123761 -315.81217073 279.23498103 -318.18774414 279.25439453 C-319.7014318 279.24749716 -321.2151099 279.23782574 -322.72875977 279.22509766 C-323.43613785 279.23005753 -324.14351593 279.2350174 -324.87232971 279.24012756 C-328.08398113 279.16356055 -330.04558784 278.89870622 -332.68408203 277.01123047 C-334.67029234 274.25779607 -335.91374647 271.60173777 -337.18579102 268.45166016 C-337.68433594 267.23188477 -338.18288086 266.01210938 -338.6965332 264.75537109 C-339.21696007 263.45253878 -339.73680704 262.14947469 -340.25610352 260.84619141 C-340.79090265 259.52072046 -341.32638594 258.19552535 -341.86254883 256.87060547 C-342.65406285 254.91258768 -343.44418863 252.95407838 -344.22949219 250.99356079 C-345.60892496 247.55072835 -347.02065586 244.12690607 -348.49829102 240.72509766 C-354.38477316 227.11312544 -354.38477316 227.11312544 -352.38110352 221.65869141 C-349.314774 217.2692197 -345.609404 213.3370002 -341.32666016 210.11132812 C-333.0146277 203.19664217 -330.77037048 193.85541258 -327.66464233 183.89263916 C-326.00744438 178.58683494 -324.25617054 173.31205069 -322.51391602 168.03369141 C-322.16715317 166.97642853 -321.82039032 165.91916565 -321.46311951 164.8298645 C-318.33058355 155.34321697 -314.83181191 146.03649611 -311.06860352 136.78369141 C-310.63472321 135.71663467 -310.63472321 135.71663467 -310.19207764 134.62802124 C-308.28539759 129.9586949 -306.34123912 125.3057873 -304.38110352 120.65869141 C-303.89834961 119.50836426 -303.4155957 118.35803711 -302.91821289 117.17285156 C-291.26842773 89.58404216 -278.57130159 61.88728352 -259.38110352 38.65869141 C-258.6424707 37.74345703 -257.90383789 36.82822266 -257.14282227 35.88525391 C-242.46751229 18.52511812 -219.00829518 12.61663677 -197.63110352 7.90869141 C-196.73423828 7.71017578 -195.83737305 7.51166016 -194.91333008 7.30712891 C-181.19938513 4.41476926 -167.84782886 3.28845081 -153.88110352 3.34619141 C-152.70688339 3.3459346 -152.70688339 3.3459346 -151.50894165 3.34567261 C-140.78387948 3.35562784 -130.42054448 4.01416099 -119.80517578 5.64599609 C-101.07196127 8.4661622 -85.72271457 2.81921458 -68.85864258 -4.68652344 C-43.78128056 -15.75347005 -22.80355522 -15.8926948 0 0 Z " fill="#C87643" transform="translate(352.381103515625,123.34130859375)"/>
<path d="M0 0 C5.608542 3.70524796 9.95388023 4.65700014 16.61889648 3.65869141 C20.5951932 2.73217899 24.43735005 1.51934159 28.30639648 0.22119141 C39.48375466 -3.44173259 39.48375466 -3.44173259 43.61108398 -3.88427734 C46.84095132 -4.37504939 47.84614739 -4.90846408 50.05639648 -7.21630859 C55.949037 -12.65164885 62.00483018 -13.94857013 69.94311523 -13.68505859 C76.95390222 -12.78440275 81.20482431 -9.26589651 85.58764648 -3.92724609 C86.61889648 -2.34130859 86.61889648 -2.34130859 86.61889648 -0.34130859 C87.4709668 -0.07576172 88.32303711 0.18978516 89.20092773 0.46337891 C99.74093351 4.1493695 108.87675071 9.79405345 117.61889648 16.65869141 C118.20155273 17.07634766 118.78420898 17.49400391 119.38452148 17.92431641 C128.91745634 25.04893088 133.96699537 36.41066229 135.80639648 47.78369141 C136.79476423 52.70438856 137.6336649 55.46038752 141.61889648 58.59619141 C143.25863838 59.659735 144.92803864 60.67844744 146.61889648 61.65869141 C148.60085046 62.90426723 150.58001179 64.15429744 152.55639648 65.40869141 C153.47291992 65.96041016 154.38944336 66.51212891 155.33374023 67.08056641 C157.61889648 68.65869141 157.61889648 68.65869141 159.61889648 71.65869141 C160.3262311 79.34049745 158.42513873 85.36081421 155.80639648 92.53369141 C155.4499707 93.56494141 155.09354492 94.59619141 154.72631836 95.65869141 C151.70983166 104.1380632 151.70983166 104.1380632 148.61889648 106.65869141 C146.16577148 107.57275391 146.16577148 107.57275391 143.36889648 108.28369141 C142.45624023 108.52345703 141.54358398 108.76322266 140.60327148 109.01025391 C132.93525391 110.67634149 125.34497782 110.94551105 117.53295898 111.17626953 C106.44565046 111.39292251 106.44565046 111.39292251 97.24389648 116.76025391 C90.82949285 121.9942291 81.41376717 120.26749341 73.61889648 120.03369141 C71.87284863 120.0035592 70.12675079 119.97618913 68.38061523 119.95166016 C64.12546472 119.8859083 59.87273539 119.78257112 55.61889648 119.65869141 C55.88806885 120.45138428 56.15724121 121.24407715 56.43457031 122.06079102 C58.95008703 129.78494722 60.49132716 137.15077019 61.30639648 145.22119141 C61.4346582 146.34380371 61.56291992 147.46641602 61.69506836 148.62304688 C62.26129 153.84132776 62.68900032 158.9741367 62.63842773 164.22509766 C62.53941894 176.65541578 65.46111429 183.05473211 73.14331055 192.72412109 C75.50442554 195.8196663 77.4768615 199.10872524 79.43139648 202.47119141 C79.8275415 203.14859375 80.22368652 203.82599609 80.63183594 204.52392578 C85.21457799 212.50139112 89.36053868 220.71494819 93.56933594 228.89331055 C101.61158463 247.68838547 101.61158463 247.68838547 115.61889648 260.65869141 C118.90864169 260.85170123 122.19641608 260.97581094 125.48999023 261.08447266 C129.18996507 261.76349425 130.36951248 262.69504803 132.61889648 265.65869141 C133.708326 269.65326628 134.04027296 271.73567627 132.30639648 275.53369141 C130.61889648 277.65869141 130.61889648 277.65869141 128.61889648 278.65869141 C121.010169 279.37678252 113.32121704 279.41727363 105.6824522 279.56981754 C102.16982559 279.6413308 98.66423222 279.74227307 95.15527344 279.9206543 C78.76885463 280.73248259 66.20138618 280.17532233 53.22514343 268.84022522 C51.72565069 267.45575762 50.23944508 266.05672492 48.76855469 264.64190674 C45.44130361 261.57227672 41.79057338 259.01788884 38.05639648 256.47119141 C37.03529282 255.77281662 37.03529282 255.77281662 35.99356079 255.06033325 C31.37790197 251.94096676 26.63755085 249.84932273 21.42358398 247.88525391 C16.25117946 245.62322741 11.99278213 242.17897456 7.61889648 238.65869141 C6.85963867 238.07603516 6.10038086 237.49337891 5.31811523 236.89306641 C-6.65122771 227.11349669 -14.05995395 213.49085399 -20.38110352 199.65869141 C-20.83614258 198.66611328 -21.29118164 197.67353516 -21.76000977 196.65087891 C-22.65439625 194.66266087 -23.52231082 192.66254102 -24.38110352 190.65869141 C-28.21022253 192.16755283 -31.33578481 193.86713302 -34.38110352 196.65869141 C-36.1909497 201.15201387 -36.48770986 205.64437717 -36.85375977 210.44775391 C-36.98989062 211.79765317 -37.13021549 213.14713542 -37.27452087 214.4961853 C-37.6419252 218.03273419 -37.95423305 221.5720012 -38.25439453 225.11480713 C-38.56877478 228.71851751 -38.9322575 232.31721055 -39.29321289 235.91650391 C-39.92487138 242.24157636 -40.5112063 248.56956303 -41.06239319 254.9022522 C-41.33332732 257.24548809 -41.73745923 259.3944204 -42.38110352 261.65869141 C-41.56125977 261.61228516 -40.74141602 261.56587891 -39.89672852 261.51806641 C-38.81907227 261.48197266 -37.74141602 261.44587891 -36.63110352 261.40869141 C-35.56375977 261.36228516 -34.49641602 261.31587891 -33.39672852 261.26806641 C-30.38110352 261.65869141 -30.38110352 261.65869141 -28.04907227 263.49072266 C-25.88925489 266.29797943 -25.45321833 268.12506558 -25.38110352 271.65869141 C-26.75504082 274.53741718 -28.13099789 276.40858578 -30.38110352 278.65869141 C-32.71826172 278.93284607 -32.71826172 278.93284607 -35.68188477 278.96508789 C-36.79063965 278.98107529 -37.89939453 278.99706268 -39.04174805 279.01353455 C-40.24686035 279.01889725 -41.45197266 279.02425995 -42.69360352 279.02978516 C-43.93223145 279.03881363 -45.17085938 279.0478421 -46.44702148 279.05714417 C-49.07672624 279.07168268 -51.70599573 279.08133666 -54.33569336 279.08422852 C-57.01871552 279.08851902 -59.70076993 279.10923766 -62.38354492 279.14575195 C-66.25802722 279.19478695 -70.13134216 279.21003673 -74.00610352 279.21728516 C-75.19502197 279.23681747 -76.38394043 279.25634979 -77.60888672 279.276474 C-85.20144894 279.23578029 -91.0910261 278.09587527 -97.38110352 273.65869141 C-103.85217886 267.02061696 -105.53549528 260.30677656 -105.45556641 251.18310547 C-105.40235797 238.84309191 -108.46311963 229.91643688 -114.57080078 219.28076172 C-115.38110352 217.65869141 -115.38110352 217.65869141 -115.38110352 215.65869141 C-116.04110352 215.65869141 -116.70110352 215.65869141 -117.38110352 215.65869141 C-117.59379883 216.42439453 -117.80649414 217.19009766 -118.02563477 217.97900391 C-119.9076898 223.08821384 -122.49714163 227.74224264 -125.06860352 232.53369141 C-129.95233657 241.74458793 -134.40891128 251.02192927 -138.38110352 260.65869141 C-137.06754883 260.67287109 -135.75399414 260.68705078 -134.40063477 260.70166016 C-132.66492301 260.74857128 -130.929247 260.79681862 -129.19360352 260.84619141 C-127.89712891 260.85489258 -127.89712891 260.85489258 -126.57446289 260.86376953 C-122.09310704 261.01829904 -119.97241695 261.21013471 -116.30688477 263.99072266 C-114.38110352 266.65869141 -114.38110352 266.65869141 -113.75610352 270.15869141 C-114.5742155 274.7401185 -115.63658532 275.89383358 -119.38110352 278.65869141 C-123.10395847 279.45977202 -126.77801626 279.47844559 -130.57641602 279.49853516 C-131.67847382 279.51517715 -132.78053162 279.53181915 -133.91598511 279.54896545 C-136.25434982 279.57427332 -138.59289496 279.58600825 -140.93139648 279.58520508 C-144.44778291 279.59601217 -147.95597762 279.68639776 -151.47094727 279.78173828 C-167.05010496 279.97348558 -179.85254336 277.50093612 -192.06326294 267.24595642 C-194.39819746 264.43365883 -194.07265699 260.68093284 -194.31860352 257.15869141 C-195.94886994 239.5420289 -204.84811161 223.19168331 -217.38110352 210.65869141 C-218.14551758 211.33673828 -218.90993164 212.01478516 -219.69750977 212.71337891 C-240.7561629 231.12969153 -271.35406895 251.65869141 -300.38110352 251.65869141 C-300.38110352 254.95869141 -300.38110352 258.25869141 -300.38110352 261.65869141 C-299.45297852 261.74119141 -298.52485352 261.82369141 -297.56860352 261.90869141 C-294.38110352 262.65869141 -294.38110352 262.65869141 -292.50610352 264.28369141 C-290.89696462 267.68076241 -290.85960977 269.94304847 -291.38110352 273.65869141 C-294.08497852 277.20714396 -295.5633577 278.51633347 -300.00634766 279.28979492 C-301.3927408 279.31582934 -302.77986709 279.31365704 -304.16625977 279.28759766 C-304.90436386 279.29000961 -305.64246796 279.29242157 -306.40293884 279.29490662 C-307.95699458 279.29393066 -309.51108617 279.28059683 -311.06494141 279.25561523 C-313.44041096 279.22123761 -315.81217073 279.23498103 -318.18774414 279.25439453 C-319.7014318 279.24749716 -321.2151099 279.23782574 -322.72875977 279.22509766 C-323.43613785 279.23005753 -324.14351593 279.2350174 -324.87232971 279.24012756 C-328.08398113 279.16356055 -330.04558784 278.89870622 -332.68408203 277.01123047 C-334.67029234 274.25779607 -335.91374647 271.60173777 -337.18579102 268.45166016 C-337.68433594 267.23188477 -338.18288086 266.01210938 -338.6965332 264.75537109 C-339.21696007 263.45253878 -339.73680704 262.14947469 -340.25610352 260.84619141 C-340.79090265 259.52072046 -341.32638594 258.19552535 -341.86254883 256.87060547 C-342.65406285 254.91258768 -343.44418863 252.95407838 -344.22949219 250.99356079 C-345.60892496 247.55072835 -347.02065586 244.12690607 -348.49829102 240.72509766 C-354.38477316 227.11312544 -354.38477316 227.11312544 -352.38110352 221.65869141 C-349.314774 217.2692197 -345.609404 213.3370002 -341.32666016 210.11132812 C-333.0146277 203.19664217 -330.77037048 193.85541258 -327.66464233 183.89263916 C-326.00744438 178.58683494 -324.25617054 173.31205069 -322.51391602 168.03369141 C-322.16715317 166.97642853 -321.82039032 165.91916565 -321.46311951 164.8298645 C-318.33058355 155.34321697 -314.83181191 146.03649611 -311.06860352 136.78369141 C-310.63472321 135.71663467 -310.63472321 135.71663467 -310.19207764 134.62802124 C-308.28539759 129.9586949 -306.34123912 125.3057873 -304.38110352 120.65869141 C-303.89834961 119.50836426 -303.4155957 118.35803711 -302.91821289 117.17285156 C-291.26842773 89.58404216 -278.57130159 61.88728352 -259.38110352 38.65869141 C-258.6424707 37.74345703 -257.90383789 36.82822266 -257.14282227 35.88525391 C-242.46751229 18.52511812 -219.00829518 12.61663677 -197.63110352 7.90869141 C-196.73423828 7.71017578 -195.83737305 7.51166016 -194.91333008 7.30712891 C-181.19938513 4.41476926 -167.84782886 3.28845081 -153.88110352 3.34619141 C-152.70688339 3.3459346 -152.70688339 3.3459346 -151.50894165 3.34567261 C-140.78387948 3.35562784 -130.42054448 4.01416099 -119.80517578 5.64599609 C-101.07196127 8.4661622 -85.72271457 2.81921458 -68.85864258 -4.68652344 C-43.78128056 -15.75347005 -22.80355522 -15.8926948 0 0 Z M58.61889648 7.65869141 C57.83761172 11.56511523 58.55659084 13.51912676 60.18139648 17.15869141 C61.77359006 21.03533663 61.96047787 22.723386 60.61889648 26.65869141 C58.29053735 29.24575711 57.0384747 29.62444012 53.55639648 29.90869141 C50.61889648 29.65869141 50.61889648 29.65869141 47.61889648 28.65869141 C46.61889648 26.65869141 46.61889648 26.65869141 45.61889648 23.65869141 C45.35850586 22.88912109 45.09811523 22.11955078 44.82983398 21.32666016 C44.08193609 19.10743041 43.34634776 16.88469231 42.61889648 14.65869141 C38.1829276 15.1553829 34.3517764 15.99801944 30.12817383 17.52685547 C20.15200278 21.08494808 10.20211416 23.03171173 -0.07641602 19.32666016 C-3.63265132 17.59543792 -6.99750543 15.70551041 -10.38110352 13.65869141 C-11.49098633 13.01416016 -12.60086914 12.36962891 -13.74438477 11.70556641 C-15.75982703 10.53419825 -17.7664799 9.34744386 -19.76000977 8.13916016 C-24.93274954 5.21744872 -29.08099649 4.31775999 -35.00610352 4.34619141 C-36.31836914 4.32943359 -37.63063477 4.31267578 -38.98266602 4.29541016 C-49.03265262 4.79154874 -58.18864702 9.08826833 -67.25610352 13.09619141 C-80.92736113 19.13337966 -92.81970132 23.33454073 -107.85668945 23.0703125 C-110.01114198 23.03360556 -112.163869 23.02929633 -114.31860352 23.02978516 C-121.22640677 22.99369573 -127.74972685 22.52001267 -134.52954102 21.10839844 C-140.65012308 20.14314911 -146.88632967 20.35922962 -153.06860352 20.40869141 C-154.13765427 20.41434113 -154.13765427 20.41434113 -155.228302 20.42010498 C-184.37092043 20.60087878 -222.62128748 25.05629809 -244.13427734 46.80175781 C-276.40172216 81.44155908 -292.72443946 134.91725138 -308.38110352 178.65869141 C-308.72109375 179.60566895 -309.06108398 180.55264648 -309.41137695 181.52832031 C-310.36569006 184.19467301 -311.31313597 186.86330707 -312.25610352 189.53369141 C-312.68656982 190.74883423 -312.68656982 190.74883423 -313.12573242 191.98852539 C-314.71786653 196.54773212 -316.0381342 201.1075592 -317.25610352 205.78369141 C-319.29467849 212.63752105 -323.42638292 216.70397081 -328.38110352 221.65869141 C-330.36110352 223.96869141 -332.34110352 226.27869141 -334.38110352 228.65869141 C-330.09110352 239.54869141 -325.80110352 250.43869141 -321.38110352 261.65869141 C-320.06110352 261.65869141 -318.74110352 261.65869141 -317.38110352 261.65869141 C-317.37175781 261.07901611 -317.36241211 260.49934082 -317.3527832 259.90209961 C-317.29886282 257.25762195 -317.21526222 254.61487247 -317.13110352 251.97119141 C-317.10983398 250.60317383 -317.10983398 250.60317383 -317.08813477 249.20751953 C-316.93668548 245.04266425 -316.72166871 242.27990755 -314.69360352 238.58056641 C-311.8803688 236.24254025 -310.25390587 235.92261142 -306.63110352 235.59619141 C-278.02605163 232.06037764 -253.65953405 218.82172583 -232.00610352 200.22119141 C-216.62870298 187.06708473 -199.88815441 176.51312068 -180.38110352 170.65869141 C-178.92124023 170.21589844 -178.92124023 170.21589844 -177.43188477 169.76416016 C-159.13810546 164.90973244 -139.18116864 165.27295838 -120.38110352 164.65869141 C-120.18516602 163.70091797 -119.98922852 162.74314453 -119.78735352 161.75634766 C-116.58987837 147.15176406 -111.15900936 132.43659725 -100.38110352 121.65869141 C-96.85810936 121.39280506 -94.21043237 121.29718908 -90.94360352 122.72119141 C-88.55107367 125.68792842 -89.05681385 127.93322087 -89.38110352 131.65869141 C-90.95532227 134.79931641 -90.95532227 134.79931641 -93.06860352 137.90869141 C-104.82764215 155.84629611 -108.00880739 175.99141638 -104.33422852 197.04150391 C-101.69818864 207.04549131 -97.82837183 217.31114003 -91.94360352 225.84619141 C-89.87254472 229.93752213 -89.04373219 233.12749874 -88.93188477 237.70166016 C-88.8737561 239.37675659 -88.8737561 239.37675659 -88.81445312 241.08569336 C-88.77607626 243.35346128 -88.76441503 245.62186611 -88.78173828 247.88989258 C-88.77874213 252.25128849 -88.70757083 255.79677611 -87.15454102 259.89697266 C-82.37478951 262.93312467 -77.14523695 262.17053438 -71.63110352 261.97119141 C-70.45676758 261.94863281 -69.28243164 261.92607422 -68.07250977 261.90283203 C-65.17408714 261.843921 -62.27823924 261.76170772 -59.38110352 261.65869141 C-57.7202835 249.51599928 -56.20761902 237.3697945 -54.95141602 225.17822266 C-54.59055606 221.76088442 -54.22828822 218.34369723 -53.8659668 214.92651367 C-53.62259049 212.58967188 -53.38645838 210.25206608 -53.15698242 207.91381836 C-52.81746198 204.47860076 -52.44966154 201.0474175 -52.07641602 197.61572266 C-51.98039093 196.57108353 -51.88436584 195.5264444 -51.78543091 194.45014954 C-50.97024595 187.29149194 -50.97024595 187.29149194 -48.00244141 184.10375977 C-47.1373999 183.62688721 -46.2723584 183.15001465 -45.38110352 182.65869141 C-44.76146729 182.2780957 -44.14183105 181.8975 -43.50341797 181.50537109 C-42.92293701 181.20018555 -42.34245605 180.895 -41.74438477 180.58056641 C-41.08986328 180.22881348 -40.4353418 179.87706055 -39.76098633 179.51464844 C-39.07875 179.14968262 -38.39651367 178.7847168 -37.69360352 178.40869141 C-31.01241193 174.72934801 -25.10284371 170.73546894 -19.38110352 165.65869141 C-18.4052832 164.81435547 -17.42946289 163.97001953 -16.42407227 163.10009766 C-5.83177788 153.79526446 1.99593752 143.66027883 8.67358398 131.26025391 C9.01123779 130.64118164 9.3488916 130.02210938 9.69677734 129.38427734 C10.49667381 127.88740992 11.2479446 126.36475197 11.98999023 124.83837891 C14.20909045 121.86893546 16.31328861 121.30531533 19.80639648 120.15869141 C25.32986297 118.21250355 29.80090864 115.96515365 34.61889648 112.65869141 C34.22057617 112.16240234 33.82225586 111.66611328 33.41186523 111.15478516 C32.88206055 110.47544922 32.35225586 109.79611328 31.80639648 109.09619141 C31.28432617 108.43490234 30.76225586 107.77361328 30.22436523 107.09228516 C24.15926383 97.89871296 20.59927483 82.66760942 22.61889648 71.65869141 C23.92749023 69.88916016 23.92749023 69.88916016 25.61889648 68.65869141 C29.30503674 68.18954628 31.5997477 67.95458675 34.71655273 70.10791016 C37.45223868 73.77608865 37.87802053 77.45657572 38.61889648 81.90869141 C40.33568776 92.80380959 40.33568776 92.80380959 46.73681641 101.35302734 C50.47511435 103.0465824 53.89036859 103.12637134 57.91967773 103.12744141 C58.71488327 103.13505493 59.51008881 103.14266846 60.32939148 103.1505127 C62.0078112 103.16128887 63.68629784 103.1641769 65.36474609 103.15966797 C67.91351206 103.15869821 70.45923859 103.20028871 73.00756836 103.24462891 C84.69081 103.38115664 84.69081 103.38115664 94.61889648 97.65869141 C102.71330786 93.71019805 112.28271797 94.37401311 121.08178711 94.14111328 C126.85837596 93.93982518 132.15657404 93.63815688 137.61889648 91.65869141 C139.22798189 89.74896428 139.22798189 89.74896428 139.68139648 87.34619141 C139.89924805 86.58693359 140.11709961 85.82767578 140.34155273 85.04541016 C140.67114915 82.20902414 140.56831827 80.36323694 139.61889648 77.65869141 C137.54995174 75.71996432 137.54995174 75.71996432 134.93139648 74.15869141 C133.57788086 73.2634375 133.57788086 73.2634375 132.19702148 72.35009766 C131.34624023 71.79193359 130.49545898 71.23376953 129.61889648 70.65869141 C125.24764637 67.54282097 122.74345671 64.65379507 120.61889648 59.65869141 C120.09936523 56.36181641 120.09936523 56.36181641 119.80639648 52.90869141 C118.50735923 42.80388519 113.5925389 34.9664121 105.61889648 28.65869141 C96.69450475 22.45514179 96.69450475 22.45514179 86.61889648 18.65869141 C85.13389648 19.64869141 85.13389648 19.64869141 83.61889648 20.65869141 C80.13965172 21.10285031 78.30971893 21.08812157 75.30639648 19.22119141 C73.19263424 16.01140429 73.1597114 13.55229487 72.88061523 9.78759766 C72.5312853 6.94603329 71.83872735 5.4821239 69.61889648 3.65869141 C64.97955774 2.65559114 62.04976348 4.62676243 58.61889648 7.65869141 Z " fill="#3E4849" transform="translate(352.381103515625,123.34130859375)"/>
<path d="M0 0 C2.85305431 2.85305431 2.93422226 6.09802492 3.5625 9.9375 C3.68818359 10.64712891 3.81386719 11.35675781 3.94335938 12.08789062 C5.30713624 20.09204701 6.12541261 28.00423246 5.859375 36.12890625 C5.46773667 51.85870212 8.17492812 59.94349584 18.2421875 71.79394531 C21.20106573 75.50733749 23.50007955 79.55076162 25.8125 83.6875 C26.2866333 84.52982178 26.7607666 85.37214355 27.24926758 86.23999023 C32.57696699 95.8497658 37.57800781 105.64092123 42.56958008 115.4284668 C42.90012894 116.0759639 43.2306778 116.723461 43.57124329 117.39057922 C44.47190762 119.15704948 45.36983969 120.92491207 46.26757812 122.69287109 C48.09600645 126.18327274 50.02572795 129.59043432 52 133 C43.35713829 134.51962404 36.10644514 134.80687436 28.5859375 129.75390625 C24.02053155 126.34036071 19.66000936 122.6850206 15.33398438 118.97460938 C7.80544041 112.60527218 0.03968525 107.78393745 -9.15625 104.2265625 C-26.49791908 96.74677666 -37.71165887 79.88172835 -44.5625 62.9375 C-46.36940073 58.30507744 -47.78798616 53.99410381 -48 49 C-46.63671875 46.78515625 -46.63671875 46.78515625 -44.6875 45.0625 C-43.73423828 44.18271484 -43.73423828 44.18271484 -42.76171875 43.28515625 C-41 42 -41 42 -39 42 C-38.75378906 41.43023437 -38.50757813 40.86046875 -38.25390625 40.2734375 C-36.79314681 37.62495777 -35.04055451 35.79852724 -32.9375 33.625 C-29.23914522 29.59909367 -26.16374596 25.47613681 -23.25 20.875 C-22.86682617 20.27389404 -22.48365234 19.67278809 -22.08886719 19.0534668 C-20.535467 16.58168501 -19.05697829 14.11342407 -17.74609375 11.50390625 C-14.34952001 4.87369405 -8.79405977 3.33828054 -2 1 C-1.34 0.67 -0.68 0.34 0 0 Z " fill="#A76339" transform="translate(392,252)"/>
<path d="M0 0 C-1.2946535 7.20073946 -3.11454185 13.77497445 -6.11328125 20.44921875 C-6.41809418 21.1362236 -6.7229071 21.82322845 -7.03695679 22.53105164 C-10.49665109 30.24232144 -14.29667021 37.77948049 -18.125 45.3125 C-27.11444218 62.06556221 -27.11444218 62.06556221 -33 80 C-39.68036358 80.63960928 -45.07689114 80.03147405 -51.00390625 76.73046875 C-54.68576294 73.53856559 -54.56043087 69.6219401 -55 65 C-57.92860594 48.95922656 -66.29580258 36.54920719 -75.7824707 23.67895508 C-79 19.24202928 -79 19.24202928 -79 16 C-64.7734465 8.6457465 -51.11574968 2.47084589 -35 0.875 C-34.15856445 0.79008301 -33.31712891 0.70516602 -32.45019531 0.61767578 C-21.65400152 -0.35826243 -10.82833473 -0.182248 0 0 Z " fill="#A76339" transform="translate(229,305)"/>
</svg>
